<mxfile host="app.diagrams.net" modified="2023-08-24T07:33:01.679Z" agent="Mozilla/5.0 (Macintosh; Intel Mac OS X 10_15_7) AppleWebKit/537.36 (KHTML, like Gecko) Chrome/114.0.0.0 Safari/537.36" etag="PfQnhn6BIojUbkC86TR1" version="21.6.9" type="device">
  <diagram name="Page-1" id="BEE_PI4ZTQYsDp6mw7uW">
    <mxGraphModel dx="2390" dy="1275" grid="1" gridSize="10" guides="1" tooltips="1" connect="1" arrows="1" fold="1" page="1" pageScale="1" pageWidth="827" pageHeight="1169" math="0" shadow="0">
      <root>
        <mxCell id="0" />
        <mxCell id="1" parent="0" />
        <mxCell id="K29Ckt8CjFFlXVH_8B9p-33" value="" style="rounded=1;whiteSpace=wrap;html=1;" vertex="1" parent="1">
          <mxGeometry x="270" y="50" width="360" height="840" as="geometry" />
        </mxCell>
        <mxCell id="K29Ckt8CjFFlXVH_8B9p-1" value="Input Latent batch&lt;br&gt;[bs, n_grains, z_dim]" style="rounded=0;whiteSpace=wrap;html=1;" vertex="1" parent="1">
          <mxGeometry x="370" y="130" width="160" height="60" as="geometry" />
        </mxCell>
        <mxCell id="K29Ckt8CjFFlXVH_8B9p-27" value="Linear Layer&lt;br&gt;&lt;b&gt;mu&lt;br&gt;&lt;/b&gt;[bs*n_grains, z_dim]" style="rounded=1;whiteSpace=wrap;html=1;" vertex="1" parent="1">
          <mxGeometry x="320" y="1570" width="120" height="60" as="geometry" />
        </mxCell>
        <mxCell id="K29Ckt8CjFFlXVH_8B9p-35" value="&lt;font style=&quot;font-size: 18px;&quot;&gt;&lt;b&gt;Encoder&lt;/b&gt;&lt;/font&gt;" style="text;html=1;strokeColor=none;fillColor=none;align=center;verticalAlign=middle;whiteSpace=wrap;rounded=0;" vertex="1" parent="1">
          <mxGeometry x="300" y="70" width="80" height="40" as="geometry" />
        </mxCell>
        <mxCell id="K29Ckt8CjFFlXVH_8B9p-36" value="" style="rounded=1;whiteSpace=wrap;html=1;" vertex="1" parent="1">
          <mxGeometry x="740" y="50" width="360" height="840" as="geometry" />
        </mxCell>
        <mxCell id="K29Ckt8CjFFlXVH_8B9p-37" value="&lt;font style=&quot;font-size: 18px;&quot;&gt;&lt;b&gt;Decoder&lt;br&gt;&lt;/b&gt;&lt;/font&gt;" style="text;html=1;strokeColor=none;fillColor=none;align=center;verticalAlign=middle;whiteSpace=wrap;rounded=0;" vertex="1" parent="1">
          <mxGeometry x="770" y="70" width="80" height="40" as="geometry" />
        </mxCell>
        <mxCell id="K29Ckt8CjFFlXVH_8B9p-100" value="" style="edgeStyle=orthogonalEdgeStyle;rounded=0;orthogonalLoop=1;jettySize=auto;html=1;" edge="1" parent="1" source="K29Ckt8CjFFlXVH_8B9p-41" target="K29Ckt8CjFFlXVH_8B9p-99">
          <mxGeometry relative="1" as="geometry" />
        </mxCell>
        <mxCell id="K29Ckt8CjFFlXVH_8B9p-41" value="Input&lt;br&gt;&lt;b&gt;e, conditioning&lt;/b&gt;&lt;br&gt;[bs, e_dim], [bs]" style="rounded=0;whiteSpace=wrap;html=1;" vertex="1" parent="1">
          <mxGeometry x="840" y="130" width="160" height="60" as="geometry" />
        </mxCell>
        <mxCell id="K29Ckt8CjFFlXVH_8B9p-75" value="" style="group" vertex="1" connectable="0" parent="1">
          <mxGeometry x="340" y="210" width="190" height="90" as="geometry" />
        </mxCell>
        <mxCell id="K29Ckt8CjFFlXVH_8B9p-76" value="" style="rounded=1;whiteSpace=wrap;html=1;" vertex="1" parent="K29Ckt8CjFFlXVH_8B9p-75">
          <mxGeometry width="160" height="60" as="geometry" />
        </mxCell>
        <mxCell id="K29Ckt8CjFFlXVH_8B9p-77" value="" style="rounded=1;whiteSpace=wrap;html=1;" vertex="1" parent="K29Ckt8CjFFlXVH_8B9p-75">
          <mxGeometry x="10" y="10" width="160" height="60" as="geometry" />
        </mxCell>
        <mxCell id="K29Ckt8CjFFlXVH_8B9p-78" value="" style="rounded=1;whiteSpace=wrap;html=1;" vertex="1" parent="K29Ckt8CjFFlXVH_8B9p-75">
          <mxGeometry x="20" y="20" width="160" height="60" as="geometry" />
        </mxCell>
        <mxCell id="K29Ckt8CjFFlXVH_8B9p-79" value="Linear Layers&lt;br&gt;[bs, n_grains, h_dim]" style="rounded=1;whiteSpace=wrap;html=1;" vertex="1" parent="K29Ckt8CjFFlXVH_8B9p-75">
          <mxGeometry x="30" y="30" width="160" height="60" as="geometry" />
        </mxCell>
        <mxCell id="K29Ckt8CjFFlXVH_8B9p-80" style="edgeStyle=orthogonalEdgeStyle;rounded=0;orthogonalLoop=1;jettySize=auto;html=1;exitX=0.5;exitY=1;exitDx=0;exitDy=0;" edge="1" parent="1" source="K29Ckt8CjFFlXVH_8B9p-1" target="K29Ckt8CjFFlXVH_8B9p-79">
          <mxGeometry relative="1" as="geometry" />
        </mxCell>
        <mxCell id="K29Ckt8CjFFlXVH_8B9p-81" value="RNN Layer (LSTM)&lt;br&gt;&lt;b&gt;out: h_n (final hidden state)&lt;/b&gt;&lt;br&gt;[1, bs, h_dim]" style="rounded=1;whiteSpace=wrap;html=1;" vertex="1" parent="1">
          <mxGeometry x="370" y="340" width="160" height="60" as="geometry" />
        </mxCell>
        <mxCell id="K29Ckt8CjFFlXVH_8B9p-84" value="" style="edgeStyle=orthogonalEdgeStyle;rounded=0;orthogonalLoop=1;jettySize=auto;html=1;" edge="1" parent="1" source="K29Ckt8CjFFlXVH_8B9p-79" target="K29Ckt8CjFFlXVH_8B9p-81">
          <mxGeometry relative="1" as="geometry" />
        </mxCell>
        <mxCell id="K29Ckt8CjFFlXVH_8B9p-85" value="" style="group" vertex="1" connectable="0" parent="1">
          <mxGeometry x="340" y="420" width="190" height="90" as="geometry" />
        </mxCell>
        <mxCell id="K29Ckt8CjFFlXVH_8B9p-86" value="" style="rounded=1;whiteSpace=wrap;html=1;" vertex="1" parent="K29Ckt8CjFFlXVH_8B9p-85">
          <mxGeometry width="160" height="60" as="geometry" />
        </mxCell>
        <mxCell id="K29Ckt8CjFFlXVH_8B9p-87" value="" style="rounded=1;whiteSpace=wrap;html=1;" vertex="1" parent="K29Ckt8CjFFlXVH_8B9p-85">
          <mxGeometry x="10" y="10" width="160" height="60" as="geometry" />
        </mxCell>
        <mxCell id="K29Ckt8CjFFlXVH_8B9p-88" value="" style="rounded=1;whiteSpace=wrap;html=1;" vertex="1" parent="K29Ckt8CjFFlXVH_8B9p-85">
          <mxGeometry x="20" y="20" width="160" height="60" as="geometry" />
        </mxCell>
        <mxCell id="K29Ckt8CjFFlXVH_8B9p-89" value="Linear Layers&lt;br&gt;[bs, e_dim]" style="rounded=1;whiteSpace=wrap;html=1;" vertex="1" parent="K29Ckt8CjFFlXVH_8B9p-85">
          <mxGeometry x="30" y="30" width="160" height="60" as="geometry" />
        </mxCell>
        <mxCell id="K29Ckt8CjFFlXVH_8B9p-83" value="" style="edgeStyle=orthogonalEdgeStyle;rounded=0;orthogonalLoop=1;jettySize=auto;html=1;" edge="1" parent="1" source="K29Ckt8CjFFlXVH_8B9p-81" target="K29Ckt8CjFFlXVH_8B9p-89">
          <mxGeometry relative="1" as="geometry">
            <mxPoint x="450.0526315789473" y="430" as="targetPoint" />
          </mxGeometry>
        </mxCell>
        <mxCell id="K29Ckt8CjFFlXVH_8B9p-96" style="edgeStyle=orthogonalEdgeStyle;rounded=0;orthogonalLoop=1;jettySize=auto;html=1;entryX=0.5;entryY=0;entryDx=0;entryDy=0;" edge="1" parent="1" source="K29Ckt8CjFFlXVH_8B9p-90" target="K29Ckt8CjFFlXVH_8B9p-94">
          <mxGeometry relative="1" as="geometry" />
        </mxCell>
        <mxCell id="K29Ckt8CjFFlXVH_8B9p-90" value="Linear + HardTanh&lt;br&gt;&lt;b&gt;log variance&lt;br&gt;&lt;/b&gt;[bs, e_dim]" style="rounded=1;whiteSpace=wrap;html=1;" vertex="1" parent="1">
          <mxGeometry x="470" y="560" width="120" height="60" as="geometry" />
        </mxCell>
        <mxCell id="K29Ckt8CjFFlXVH_8B9p-95" style="edgeStyle=orthogonalEdgeStyle;rounded=0;orthogonalLoop=1;jettySize=auto;html=1;entryX=0.5;entryY=0;entryDx=0;entryDy=0;" edge="1" parent="1" source="K29Ckt8CjFFlXVH_8B9p-91" target="K29Ckt8CjFFlXVH_8B9p-94">
          <mxGeometry relative="1" as="geometry" />
        </mxCell>
        <mxCell id="K29Ckt8CjFFlXVH_8B9p-91" value="Linear Layer&lt;br&gt;&lt;b&gt;mu&lt;br&gt;&lt;/b&gt;[bs, e_dim]" style="rounded=1;whiteSpace=wrap;html=1;" vertex="1" parent="1">
          <mxGeometry x="310" y="560" width="120" height="60" as="geometry" />
        </mxCell>
        <mxCell id="K29Ckt8CjFFlXVH_8B9p-92" style="edgeStyle=orthogonalEdgeStyle;rounded=0;orthogonalLoop=1;jettySize=auto;html=1;" edge="1" parent="1" source="K29Ckt8CjFFlXVH_8B9p-89" target="K29Ckt8CjFFlXVH_8B9p-91">
          <mxGeometry relative="1" as="geometry" />
        </mxCell>
        <mxCell id="K29Ckt8CjFFlXVH_8B9p-93" style="edgeStyle=orthogonalEdgeStyle;rounded=0;orthogonalLoop=1;jettySize=auto;html=1;" edge="1" parent="1" source="K29Ckt8CjFFlXVH_8B9p-89" target="K29Ckt8CjFFlXVH_8B9p-90">
          <mxGeometry relative="1" as="geometry" />
        </mxCell>
        <mxCell id="K29Ckt8CjFFlXVH_8B9p-98" value="" style="edgeStyle=orthogonalEdgeStyle;rounded=0;orthogonalLoop=1;jettySize=auto;html=1;" edge="1" parent="1" source="K29Ckt8CjFFlXVH_8B9p-94" target="K29Ckt8CjFFlXVH_8B9p-97">
          <mxGeometry relative="1" as="geometry" />
        </mxCell>
        <mxCell id="K29Ckt8CjFFlXVH_8B9p-94" value="Sample from Distribution&lt;br&gt;&lt;b&gt;e&lt;/b&gt;&lt;br&gt;[bs, e_dim]" style="rounded=1;whiteSpace=wrap;html=1;" vertex="1" parent="1">
          <mxGeometry x="370" y="680" width="160" height="60" as="geometry" />
        </mxCell>
        <mxCell id="K29Ckt8CjFFlXVH_8B9p-97" value="Output&lt;br&gt;&lt;b&gt;e&lt;/b&gt;&lt;br&gt;[bs, e_dim]" style="rounded=0;whiteSpace=wrap;html=1;" vertex="1" parent="1">
          <mxGeometry x="370" y="770" width="160" height="60" as="geometry" />
        </mxCell>
        <mxCell id="K29Ckt8CjFFlXVH_8B9p-99" value="Concatenate Inputs&lt;br&gt;[bs, e_dim+n_conds]" style="rounded=1;whiteSpace=wrap;html=1;" vertex="1" parent="1">
          <mxGeometry x="840" y="225" width="160" height="60" as="geometry" />
        </mxCell>
        <mxCell id="K29Ckt8CjFFlXVH_8B9p-101" value="" style="group" vertex="1" connectable="0" parent="1">
          <mxGeometry x="810" y="300" width="190" height="90" as="geometry" />
        </mxCell>
        <mxCell id="K29Ckt8CjFFlXVH_8B9p-102" value="" style="rounded=1;whiteSpace=wrap;html=1;" vertex="1" parent="K29Ckt8CjFFlXVH_8B9p-101">
          <mxGeometry width="160" height="60" as="geometry" />
        </mxCell>
        <mxCell id="K29Ckt8CjFFlXVH_8B9p-103" value="" style="rounded=1;whiteSpace=wrap;html=1;" vertex="1" parent="K29Ckt8CjFFlXVH_8B9p-101">
          <mxGeometry x="10" y="10" width="160" height="60" as="geometry" />
        </mxCell>
        <mxCell id="K29Ckt8CjFFlXVH_8B9p-104" value="" style="rounded=1;whiteSpace=wrap;html=1;" vertex="1" parent="K29Ckt8CjFFlXVH_8B9p-101">
          <mxGeometry x="20" y="20" width="160" height="60" as="geometry" />
        </mxCell>
        <mxCell id="K29Ckt8CjFFlXVH_8B9p-105" value="Linear Layers&lt;br&gt;[bs, h_dim]" style="rounded=1;whiteSpace=wrap;html=1;" vertex="1" parent="K29Ckt8CjFFlXVH_8B9p-101">
          <mxGeometry x="30" y="30" width="160" height="60" as="geometry" />
        </mxCell>
        <mxCell id="K29Ckt8CjFFlXVH_8B9p-106" style="edgeStyle=orthogonalEdgeStyle;rounded=0;orthogonalLoop=1;jettySize=auto;html=1;exitX=0.5;exitY=1;exitDx=0;exitDy=0;entryX=0.5;entryY=0;entryDx=0;entryDy=0;" edge="1" parent="1" source="K29Ckt8CjFFlXVH_8B9p-99" target="K29Ckt8CjFFlXVH_8B9p-105">
          <mxGeometry relative="1" as="geometry" />
        </mxCell>
        <mxCell id="K29Ckt8CjFFlXVH_8B9p-110" value="" style="edgeStyle=orthogonalEdgeStyle;rounded=0;orthogonalLoop=1;jettySize=auto;html=1;" edge="1" parent="1" source="K29Ckt8CjFFlXVH_8B9p-107" target="K29Ckt8CjFFlXVH_8B9p-109">
          <mxGeometry relative="1" as="geometry" />
        </mxCell>
        <mxCell id="K29Ckt8CjFFlXVH_8B9p-107" value="Reshaping&lt;br&gt;[bs, n_grains, h_dim]" style="rounded=1;whiteSpace=wrap;html=1;" vertex="1" parent="1">
          <mxGeometry x="840" y="420" width="160" height="60" as="geometry" />
        </mxCell>
        <mxCell id="K29Ckt8CjFFlXVH_8B9p-108" value="" style="edgeStyle=orthogonalEdgeStyle;rounded=0;orthogonalLoop=1;jettySize=auto;html=1;" edge="1" parent="1" source="K29Ckt8CjFFlXVH_8B9p-105" target="K29Ckt8CjFFlXVH_8B9p-107">
          <mxGeometry relative="1" as="geometry" />
        </mxCell>
        <mxCell id="K29Ckt8CjFFlXVH_8B9p-112" value="" style="edgeStyle=orthogonalEdgeStyle;rounded=0;orthogonalLoop=1;jettySize=auto;html=1;" edge="1" parent="1" source="K29Ckt8CjFFlXVH_8B9p-109" target="K29Ckt8CjFFlXVH_8B9p-111">
          <mxGeometry relative="1" as="geometry" />
        </mxCell>
        <mxCell id="K29Ckt8CjFFlXVH_8B9p-109" value="RNN Layer (LSTM)&lt;br&gt;&lt;b&gt;out: h (Output features)&lt;/b&gt;&lt;br&gt;[bs, n_grains, h_dim]" style="rounded=1;whiteSpace=wrap;html=1;" vertex="1" parent="1">
          <mxGeometry x="840" y="510" width="160" height="60" as="geometry" />
        </mxCell>
        <mxCell id="K29Ckt8CjFFlXVH_8B9p-111" value="Concatenate w Conditioning&lt;br&gt;[bs, n_grains, h_dim+n_conds]" style="rounded=1;whiteSpace=wrap;html=1;" vertex="1" parent="1">
          <mxGeometry x="840" y="600" width="160" height="60" as="geometry" />
        </mxCell>
        <mxCell id="K29Ckt8CjFFlXVH_8B9p-113" value="" style="group" vertex="1" connectable="0" parent="1">
          <mxGeometry x="810" y="670" width="190" height="90" as="geometry" />
        </mxCell>
        <mxCell id="K29Ckt8CjFFlXVH_8B9p-114" value="" style="rounded=1;whiteSpace=wrap;html=1;" vertex="1" parent="K29Ckt8CjFFlXVH_8B9p-113">
          <mxGeometry width="160" height="60" as="geometry" />
        </mxCell>
        <mxCell id="K29Ckt8CjFFlXVH_8B9p-115" value="" style="rounded=1;whiteSpace=wrap;html=1;" vertex="1" parent="K29Ckt8CjFFlXVH_8B9p-113">
          <mxGeometry x="10" y="10" width="160" height="60" as="geometry" />
        </mxCell>
        <mxCell id="K29Ckt8CjFFlXVH_8B9p-116" value="" style="rounded=1;whiteSpace=wrap;html=1;" vertex="1" parent="K29Ckt8CjFFlXVH_8B9p-113">
          <mxGeometry x="20" y="20" width="160" height="60" as="geometry" />
        </mxCell>
        <mxCell id="K29Ckt8CjFFlXVH_8B9p-117" value="Linear Layers&lt;br&gt;[bs, n_grains, z_dim]" style="rounded=1;whiteSpace=wrap;html=1;" vertex="1" parent="K29Ckt8CjFFlXVH_8B9p-113">
          <mxGeometry x="30" y="30" width="160" height="60" as="geometry" />
        </mxCell>
        <mxCell id="K29Ckt8CjFFlXVH_8B9p-118" style="edgeStyle=orthogonalEdgeStyle;rounded=0;orthogonalLoop=1;jettySize=auto;html=1;exitX=0.5;exitY=1;exitDx=0;exitDy=0;entryX=0.5;entryY=0;entryDx=0;entryDy=0;" edge="1" parent="1" source="K29Ckt8CjFFlXVH_8B9p-111" target="K29Ckt8CjFFlXVH_8B9p-117">
          <mxGeometry relative="1" as="geometry" />
        </mxCell>
        <mxCell id="K29Ckt8CjFFlXVH_8B9p-119" value="Output&lt;br&gt;&lt;b&gt;z_hat&lt;/b&gt;&lt;br&gt;[bs, n_grains, z_dim]" style="rounded=0;whiteSpace=wrap;html=1;" vertex="1" parent="1">
          <mxGeometry x="840" y="790" width="160" height="60" as="geometry" />
        </mxCell>
        <mxCell id="K29Ckt8CjFFlXVH_8B9p-120" value="" style="edgeStyle=orthogonalEdgeStyle;rounded=0;orthogonalLoop=1;jettySize=auto;html=1;" edge="1" parent="1" source="K29Ckt8CjFFlXVH_8B9p-117" target="K29Ckt8CjFFlXVH_8B9p-119">
          <mxGeometry relative="1" as="geometry" />
        </mxCell>
      </root>
    </mxGraphModel>
  </diagram>
</mxfile>
